<?xml version="1.0" standalone="no"?>
<!DOCTYPE svg PUBLIC "-//W3C//DTD SVG 20010904//EN"
 "http://www.w3.org/TR/2001/REC-SVG-20010904/DTD/svg10.dtd">
<svg version="1.0" xmlns="http://www.w3.org/2000/svg"
 width="700.000000pt" height="700.000000pt" viewBox="0 0 700.000000 700.000000"
 preserveAspectRatio="xMidYMid meet">
<metadata>
Created by potrace 1.14, written by Peter Selinger 2001-2017
</metadata>
<g transform="translate(0.000000,700.000000) scale(0.100000,-0.100000)"
fill="#000000" stroke="none">
<path d="M1977 6123 c-1 0 -27 -4 -57 -8 -177 -21 -355 -111 -495 -249 -131
-130 -205 -272 -246 -471 -17 -85 -17 -3700 0 -3795 61 -331 306 -601 631
-693 98 -27 148 -30 590 -32 476 -2 498 1 575 56 107 78 148 229 95 353 -24
57 -89 122 -149 150 -45 20 -60 21 -489 24 -416 3 -447 4 -497 23 -71 26 -138
94 -165 166 -20 54 -20 71 -19 1856 0 1764 1 1803 20 1853 26 69 95 137 165
163 54 21 68 21 1268 21 1047 0 1219 -2 1263 -15 66 -20 135 -81 170 -153 l28
-57 2 -1220 c0 -671 4 -1230 6 -1242 31 -128 148 -223 275 -225 128 -2 238 70
281 186 l22 58 -4 1262 c-3 1242 -3 1262 -23 1331 -50 167 -121 291 -231 401
-136 136 -290 215 -488 250 -32 5 -2522 13 -2528 7z"/>
<path d="M2533 4941 c-252 -85 -267 -427 -24 -540 l56 -25 645 0 c629 0 646 0
690 20 88 41 152 114 175 204 37 146 -59 308 -207 348 -23 6 -278 10 -660 10
-568 1 -628 -1 -675 -17z"/>
<path d="M2529 3775 c-62 -20 -132 -84 -165 -152 -57 -115 -27 -255 73 -343
76 -67 100 -70 484 -70 384 0 407 4 486 79 63 61 88 121 88 211 -1 117 -55
207 -158 263 -41 21 -50 22 -402 24 -290 2 -369 -1 -406 -12z"/>
<path d="M5792 2328 c-29 -4 -71 -17 -93 -28 -24 -13 -232 -213 -536 -516
l-496 -495 -206 205 c-156 155 -218 210 -255 227 -204 90 -422 -58 -412 -279
6 -109 20 -127 375 -482 180 -180 343 -335 362 -343 84 -40 177 -42 258 -6 36
16 178 152 664 637 427 427 624 630 638 659 45 93 43 195 -5 277 -43 73 -121
130 -196 142 -14 3 -29 6 -35 7 -5 2 -34 0 -63 -5z"/>
</g>
</svg>
